<svg xmlns="http://www.w3.org/2000/svg" width="22" height="18" viewBox="0 0 22 18" fill="none">
  <path fillRule="evenodd" clipRule="evenodd" d="M0 0H2V2H0V0ZM0 4H2V6H0V4ZM2 8H0V10H2V8ZM0 12H2V14H0V12ZM2 16H0V18H2V16ZM4 0H6V2H4V0ZM6 4H4V6H6V4ZM4 8H6V10H4V8ZM6 12H4V14H6V12ZM4 16H6V18H4V16ZM10 0H8V2H10V0ZM8 4H10V6H8V4ZM10 8H8V10H10V8ZM8 12H10V14H8V12ZM10 16H8V18H10V16ZM12 0H14V2H12V0ZM12 4H14V6H12V4ZM14 8H12V10H14V8ZM12 12H14V14H12V12ZM14 16H12V18H14V16ZM16 0H18V2H16V0ZM18 4H16V6H18V4ZM16 8H18V10H16V8ZM18 12H16V14H18V12ZM16 16H18V18H16V16ZM22 0H20V2H22V0ZM20 4H22V6H20V4ZM22 8H20V10H22V8ZM20 12H22V14H20V12ZM22 16H20V18H22V16Z" fill="url(#paint0_linear_1051_99217)"/>
  <defs>
    <linearGradient id="paint0_linear_1051_99217" x1="23" y1="3" x2="12.5" y2="16" gradientUnits="userSpaceOnUse">
      <stop stop-color="#5B2D21"/>
      <stop offset="1" stop-color="#5B2D21" stop-opacity="0"/>
    </linearGradient>
  </defs>
</svg>