<svg width="252" height="72" viewBox="0 0 252 72" fill="none" xmlns="http://www.w3.org/2000/svg">
<path fillRule="evenodd" clipRule="evenodd" d="M1 71.8747V59.9687L6.20104 59.0287V66.7363H16.9791V71.9373L1 71.8747ZM43.7363 8.89817L50.3786 11.154L48.7493 13.8486L41.9817 11.6554L43.7363 8.89817ZM52.8225 0.125326L48.1227 9.21149L46.9321 8.77285L52.5718 0L52.8225 0.125326ZM22.6188 46.8094L24.3734 48.752L20.9269 49.3786L22.6188 46.8094ZM34.8381 31.8329L37.9713 27.8225L27.9452 29.7024L30.953 32.3969L30.765 30.5796L33.0836 30.2663L34.8381 31.8329ZM15.0366 35.4047L18.2324 31.5822L8.26893 33.3995L11.1514 35.9687L10.9634 34.2141L13.282 33.9008L15.0366 35.4047ZM64.7285 72H56.2063V65.107H47.6841L47.7467 54.517L50.1906 47.8747V41.0444L41.6057 38.3499V45.3681L39.2245 51.3212L39.1619 71.9373L18.6084 71.8747V64.9817H7.83029V56.8982L3.50653 57.7128L3.56919 19.9269L41.2924 12.658L64.7911 20.2402L64.7285 72ZM43.423 40.7937V45.8068L40.9165 52.0104L40.8538 72H54.577V66.799H46.0548V54.141L48.4987 47.4987V42.3603L43.423 40.7937Z" fill="#333333"/>
<path d="M177.522 27.8213H172.76V34.0876H177.522V27.8213Z" fill="#333333"/>
<path d="M177.522 19.4873H172.76V25.503H177.522V19.4873Z" fill="#333333"/>
<path d="M177.522 36.6572V49.0019L172.76 50.8191V36.6572H177.522Z" fill="#333333"/>
<path d="M186.984 18.9863L187.423 21.4929H191.433L190.18 25.19H183.976L183.851 28.2605H190.243V50.1299H187.674H186.42V46.3701V31.8949H183.726L183.036 49.19L178.963 50.8192L179.966 25.19H178.587V21.4929H182.786L182.347 18.9863H186.984Z" fill="#333333"/>
<path d="M197.825 18.9863L197.198 20.8662H204.53L203.089 24.626H196.008L195.256 27.0072H190.744L193.313 18.9863H197.825Z" fill="#333333"/>
<path d="M196.008 36.5323V35.3417L198.64 31.8325H191.747V28.2607H203.465V31.5192L200.269 35.9683V36.5323H204.718L203.339 40.2921H200.269V50.0675H197.073H191.747V46.3704H196.008V40.2921H191.747V36.5323H196.008Z" fill="#333333"/>
<path d="M233.167 47.9362L232.979 47.4976L228.468 36.6568L233.042 24.1869V20.3018H219.193V24.3122H228.593L225.836 31.8318L223.643 26.0041H219.319L223.392 36.5942L218.128 49.8788H222.703L225.898 41.6699L229.345 49.8788H233.982L233.167 47.9362Z" fill="#333333"/>
<path d="M238.807 46.8714L241.188 44.0516L242.504 50.1926H249.522L248.708 46.2448H246.515L245.136 39.7278L251.089 31.8949H246.139L244.008 34.5268L242.943 29.3884H250.024L251.402 25.3153H242.065L240.75 18.9863H236.175L237.428 25.3153H233.543V29.3884H238.243L240.123 38.6626L233.543 46.8714H238.807Z" fill="#333333"/>
<path d="M248.269 18.9873L249.084 23.7497H244.572L243.757 18.9873H248.269Z" fill="#333333"/>
<path d="M100.133 18.7988L100.635 20.6161H112.478L111.037 24.3759H86.222V49.1905L81.397 51.0077V20.6161H95.1829L94.6816 18.7988H100.133ZM93.2403 27.2584L94.3682 25.1278H99.1307L98.0654 27.2584H111.914L110.661 30.9555H96.1855L93.5536 36.2819H98.692V32.2714H103.517V36.2819H111.789L110.473 39.8537H103.517V42.7988H112.729L111.413 46.5586H103.58V49.5038L98.7547 51.0077V46.5586H87.8513V42.7988H98.7547V39.8537H88.6032V36.5952L91.4231 31.0181H87.9139V27.321H93.2403V27.2584Z" fill="#333333"/>
<path d="M132.843 27.8213H128.081V34.0876H132.843V27.8213Z" fill="#333333"/>
<path d="M132.843 19.4873H128.081V25.503H132.843V19.4873Z" fill="#333333"/>
<path d="M132.843 36.6572V49.0019L128.081 50.8191V36.6572H132.843Z" fill="#333333"/>
<path d="M143.747 18.9863L142.807 20.6782H157.094V23.9994L149.575 30.391L158.41 36.0934H150.828L145.564 32.7722L140.802 36.0934H133.595L141.491 30.5164L135.726 26.6312H142.87L145.501 28.3231L150.389 24.25H140.739L139.799 26.0046H134.473L138.358 18.9863H143.747Z" fill="#333333"/>
<path d="M135.475 37.3467V50.4433H152.269H156.53V37.3467H135.475ZM151.705 46.7462H140.238V40.9185H151.705V46.7462Z" fill="#333333"/>
<path d="M88.2273 64.2299L93.4283 71.7494H89.6685L86.0967 66.4857L84.5301 68.1776V71.7494H81.585V59.2168H84.5301V64.6685L89.2925 59.2168H92.927L88.2273 64.2299Z" fill="#333333"/>
<path d="M108.091 59.2168H111.037V66.6737C111.037 67.739 110.786 68.6789 110.347 69.4936C109.909 70.3082 109.282 70.9348 108.467 71.3108C107.653 71.7494 106.65 71.9374 105.522 71.9374C104.394 71.9374 103.392 71.7494 102.577 71.3108C101.762 70.8722 101.136 70.2455 100.697 69.4936C100.258 68.6789 100.008 67.739 100.008 66.6737V59.2168H102.953V65.9218C102.953 67.1124 103.204 67.927 103.642 68.491C104.081 69.0549 104.708 69.3056 105.522 69.3056C106.337 69.3056 106.963 69.0549 107.402 68.491C107.841 67.927 108.091 67.1124 108.091 65.9218V59.2168Z" fill="#333333"/>
<path d="M130.149 71.7493H126.702L123.945 67.5508H123.82H122.253V71.8119H119.308V59.2793H123.883C124.948 59.2793 125.825 59.4673 126.577 59.7806C127.329 60.0939 127.956 60.5952 128.332 61.2219C128.77 61.8485 128.958 62.6004 128.958 63.4151C128.958 64.2297 128.77 64.919 128.394 65.483C128.018 66.1096 127.454 66.5482 126.765 66.9242L130.149 71.7493ZM122.253 61.7232V65.107H123.507C124.133 65.107 124.697 64.9816 125.198 64.731C125.637 64.4803 125.888 64.0417 125.888 63.4151C125.888 62.2871 125.073 61.7232 123.507 61.7232H122.253Z" fill="#333333"/>
<path d="M137.167 62.0371C137.731 61.0345 138.42 60.2826 139.36 59.7813C140.3 59.28 141.303 59.0293 142.431 59.0293C143.559 59.0293 144.561 59.28 145.501 59.7813C146.441 60.2826 147.193 61.0345 147.695 62.0371C148.258 63.0397 148.509 64.1677 148.509 65.4836C148.509 66.7995 148.258 67.9901 147.695 68.9301C147.131 69.9327 146.379 70.6847 145.501 71.186C144.561 71.6873 143.559 71.9379 142.431 71.9379C141.303 71.9379 140.238 71.6873 139.298 71.186C138.358 70.6847 137.606 69.9327 137.104 68.9301C136.54 67.9275 136.29 66.7995 136.29 65.4836C136.415 64.1677 136.666 62.9771 137.167 62.0371ZM139.862 67.4888C140.112 68.0528 140.488 68.4914 140.927 68.8048C141.366 69.1181 141.929 69.3061 142.493 69.3061C143.057 69.3061 143.621 69.1181 144.06 68.8048C144.499 68.4914 144.875 68.0528 145.125 67.4888C145.376 66.9249 145.501 66.2356 145.501 65.4836C145.501 64.7316 145.376 64.0424 145.125 63.4784C144.875 62.9144 144.499 62.4758 144.06 62.1625C143.621 61.8491 143.057 61.6612 142.493 61.6612C141.929 61.6612 141.366 61.8491 140.927 62.1625C140.488 62.4758 140.112 62.9144 139.862 63.4784C139.611 64.0424 139.486 64.7316 139.486 65.4836C139.486 66.2356 139.611 66.9249 139.862 67.4888Z" fill="#333333"/>
<path d="M171.131 67.1122V64.6057H176.206V69.8067C175.83 70.496 175.141 70.9973 174.264 71.3733C173.387 71.7493 172.384 71.9373 171.319 71.9373C170.065 71.9373 169 71.6866 167.997 71.1226C167.058 70.5587 166.306 69.8067 165.742 68.8041C165.24 67.8015 164.927 66.6736 164.927 65.4203C164.927 64.1044 165.178 62.9764 165.742 61.9738C166.306 60.9712 167.058 60.2192 167.997 59.7179C168.937 59.2166 170.003 58.9033 171.193 58.9033C172.008 58.9033 172.76 59.0286 173.449 59.2793C174.138 59.53 174.702 59.9059 175.141 60.3446C175.58 60.7832 175.893 61.2845 176.081 61.8485L173.637 63.2271C173.387 62.6631 173.073 62.2871 172.635 61.9738C172.196 61.6605 171.695 61.5352 171.131 61.5352C170.504 61.5352 170.003 61.6605 169.501 61.9738C169 62.2871 168.624 62.7258 168.311 63.2897C167.997 63.8537 167.872 64.543 167.872 65.3576C167.872 66.5482 168.185 67.4882 168.812 68.1775C169.439 68.8668 170.316 69.2427 171.381 69.2427C172.196 69.2427 172.76 69.0548 173.199 68.6161V67.0495H171.131V67.1122Z" fill="#333333"/>
<path d="M191.496 59.2168L196.572 71.7494H193.501L192.561 69.2429H187.799L186.859 71.7494H183.977L188.927 59.2168H191.496ZM191.621 66.799L190.118 62.9139L188.676 66.799H191.621Z" fill="#333333"/>
<path d="M214.87 59.217H217.063V71.7496H214.306V64.2927L211.486 68.3031H209.982L207.099 64.23V71.6869H204.342V59.1543H206.598L210.734 65.17L214.87 59.217Z" fill="#333333"/>
<path d="M232.666 66.7364H227.778V69.2429H233.418V71.7494H224.833V59.2168H233.23V61.7233H227.778V64.1672H232.666V66.7364Z" fill="#333333"/>
<path d="M250.337 70.3705C249.836 70.9345 249.272 71.3731 248.52 71.6238C247.768 71.8744 247.016 71.9998 246.264 71.9998C245.136 71.9998 244.071 71.7491 243.068 71.1851C242.128 70.6838 241.439 69.8692 241.125 68.8666L243.507 67.488C243.757 68.052 244.133 68.4906 244.635 68.8666C245.136 69.1799 245.7 69.3679 246.327 69.3679C246.828 69.3679 247.204 69.2426 247.517 69.0546C247.83 68.8666 247.956 68.616 247.956 68.24C247.956 67.9267 247.83 67.676 247.642 67.488C247.454 67.3 247.204 67.112 246.89 66.9867C246.577 66.8614 246.139 66.7361 245.575 66.5481C244.76 66.2974 244.071 66.0468 243.569 65.8588C243.068 65.6081 242.629 65.2321 242.253 64.7935C241.877 64.2922 241.689 63.6656 241.689 62.9136C241.689 62.0363 241.94 61.347 242.379 60.7204C242.817 60.1564 243.444 59.7178 244.133 59.4045C244.885 59.0911 245.637 58.9658 246.452 58.9658C247.517 58.9658 248.52 59.2165 249.334 59.7178C250.149 60.2191 250.713 60.9084 250.901 61.8483L248.52 63.2269C248.332 62.7256 248.081 62.287 247.642 62.0363C247.266 61.723 246.765 61.5977 246.264 61.5977C245.825 61.5977 245.387 61.723 245.136 61.911C244.823 62.099 244.697 62.4123 244.697 62.7256C244.697 62.9763 244.823 63.2269 245.011 63.4149C245.199 63.6029 245.449 63.7282 245.763 63.8536C246.076 63.9789 246.452 64.1042 247.016 64.2922C247.83 64.5428 248.52 64.7935 249.084 65.0442C249.585 65.2948 250.086 65.6708 250.462 66.1721C250.838 66.6734 251.026 67.3 251.026 68.1146C251.089 68.9919 250.838 69.7439 250.337 70.3705Z" fill="#333333"/>
</svg>
