<svg width="227" height="68" viewBox="0 0 227 68" fill="none" xmlns="http://www.w3.org/2000/svg">
<path d="M45.4102 57H30.2344L14.5898 26.8242H14.3262C14.4238 27.7422 14.5117 28.8457 14.5898 30.1348C14.668 31.4238 14.7363 32.7422 14.7949 34.0898C14.8535 35.418 14.8828 36.6191 14.8828 37.6934V57H4.62891V14.168H19.7461L35.332 43.9336H35.5078C35.4492 42.9961 35.3906 41.9121 35.332 40.6816C35.2734 39.4316 35.2148 38.1719 35.1562 36.9023C35.1172 35.6328 35.0977 34.5098 35.0977 33.5332V14.168H45.4102V57ZM94.7461 35.5254C94.7461 38.8262 94.3457 41.834 93.5449 44.5488C92.7637 47.2441 91.5332 49.5684 89.8535 51.5215C88.1738 53.4746 86.0156 54.9785 83.3789 56.0332C80.7422 57.0684 77.5879 57.5859 73.916 57.5859C70.3223 57.5859 67.207 57.0684 64.5703 56.0332C61.9531 54.9785 59.7949 53.4844 58.0957 51.5508C56.3965 49.5977 55.1367 47.2637 54.3164 44.5488C53.4961 41.834 53.0859 38.8066 53.0859 35.4668C53.0859 31.0137 53.8184 27.1465 55.2832 23.8652C56.7676 20.5645 59.0527 18.0156 62.1387 16.2188C65.2246 14.4023 69.1699 13.4941 73.9746 13.4941C78.8574 13.4941 82.8223 14.4023 85.8691 16.2188C88.9355 18.0352 91.1816 20.5937 92.6074 23.8945C94.0332 27.1953 94.7461 31.0723 94.7461 35.5254ZM65.2734 35.5254C65.2734 38.1035 65.5664 40.3203 66.1523 42.1758C66.7383 44.0312 67.666 45.457 68.9355 46.4531C70.2051 47.4492 71.8652 47.9473 73.916 47.9473C76.0449 47.9473 77.7344 47.4492 78.9844 46.4531C80.2539 45.457 81.1621 44.0312 81.709 42.1758C82.2754 40.3203 82.5586 38.1035 82.5586 35.5254C82.5586 31.6582 81.9141 28.6016 80.625 26.3555C79.3359 24.1094 77.1191 22.9863 73.9746 22.9863C71.8848 22.9863 70.1953 23.4941 68.9062 24.5098C67.6367 25.5254 66.709 26.9707 66.123 28.8457C65.5566 30.7207 65.2734 32.9473 65.2734 35.5254ZM121.377 57H109.805V23.6309H99.3457V14.168H131.807V23.6309H121.377V57ZM137.93 57V14.168H149.561V57H137.93ZM177.92 23.0449C176.553 23.0449 175.332 23.3379 174.258 23.9238C173.184 24.4902 172.266 25.3203 171.504 26.4141C170.742 27.5078 170.156 28.8457 169.746 30.4277C169.355 31.9902 169.16 33.7676 169.16 35.7598C169.16 38.4551 169.502 40.7207 170.186 42.5566C170.869 44.3926 171.904 45.7793 173.291 46.7168C174.697 47.6543 176.455 48.123 178.564 48.123C180.479 48.123 182.314 47.8594 184.072 47.332C185.85 46.8047 187.637 46.1699 189.434 45.4277V55.2129C187.539 56.0527 185.596 56.6582 183.604 57.0293C181.631 57.4004 179.531 57.5859 177.305 57.5859C172.656 57.5859 168.848 56.668 165.879 54.832C162.93 52.9766 160.752 50.4082 159.346 47.127C157.959 43.8457 157.266 40.0371 157.266 35.7012C157.266 32.459 157.715 29.4902 158.613 26.7949C159.531 24.0996 160.869 21.7656 162.627 19.793C164.385 17.8008 166.553 16.2676 169.131 15.1934C171.729 14.0996 174.697 13.5527 178.037 13.5527C180.107 13.5527 182.285 13.7969 184.57 14.2852C186.875 14.7539 189.121 15.5156 191.309 16.5703L187.764 25.6816C186.201 24.9395 184.619 24.3145 183.018 23.8066C181.416 23.2988 179.717 23.0449 177.92 23.0449ZM223.242 57H197.812V14.168H223.242V23.4551H209.385V30.1934H222.217V39.4805H209.385V47.5664H223.242V57Z" fill="#F7FFFF"/>
</svg>
