<svg width="122" height="4" viewBox="0 0 122 4" fill="none" xmlns="http://www.w3.org/2000/svg">
<path opacity="0.5" fill-rule="evenodd" clip-rule="evenodd" d="M1.53361 0H0V4H1.53361V0ZM3.06721 0H9.20164V4H3.06721V0ZM15.3361 0H10.7352V4H15.3361V0ZM16.8697 0H21.4705V4H16.8697V0ZM24.5377 0H23.0041V4H24.5377V0ZM26.0713 0H29.1385V4H26.0713V0ZM44.4746 0H30.6721V4H44.4746V0ZM49.0754 0H46.0082V4H49.0754V0ZM120.466 0H122V4H120.466V0ZM118.463 0H112.329V4H118.463V0ZM108.792 0H110.326V4H108.792V0ZM106.789 0H102.783V4H106.789V0ZM99.2463 0H100.78V4H99.2463V0ZM90.6393 0H87.5721V4H90.6393V0ZM71.7665 0H85.569V4H71.7665V0ZM60.0924 0H63.1596V4H60.0924V0ZM97.2432 0H92.6424V4H97.2432V0ZM65.1626 0H69.7635V4H65.1626V0Z" fill="black"/>
</svg>
